<svg width="18" height="16" viewBox="0 0 18 16" fill="none" xmlns="http://www.w3.org/2000/svg">
<path d="M17.3571 0.929688H0.642857C0.287277 0.929688 0 1.21696 0 1.57254V14.4297C0 14.7853 0.287277 15.0725 0.642857 15.0725H17.3571C17.7127 15.0725 18 14.7853 18 14.4297V1.57254C18 1.21696 17.7127 0.929688 17.3571 0.929688ZM16.5536 3.15558V13.6261H1.44643V3.15558L0.891964 2.72366L1.68147 1.70915L2.54129 2.37813H15.4607L16.3205 1.70915L17.11 2.72366L16.5536 3.15558ZM15.4607 2.37612L9 7.39844L2.53929 2.37612L1.67946 1.70714L0.889955 2.72165L1.44442 3.15357L8.30692 8.48929C8.50428 8.64261 8.74707 8.72584 8.99699 8.72584C9.2469 8.72584 9.4897 8.64261 9.68705 8.48929L16.5536 3.15558L17.108 2.72366L16.3185 1.70915L15.4607 2.37612Z" fill="url(#paint0_linear_313_11071)"/>
<defs>
<linearGradient id="paint0_linear_313_11071" x1="0.608252" y1="8.39397" x2="18.1958" y2="8.39397" gradientUnits="userSpaceOnUse">
<stop stop-color="#02B5D3"/>
<stop offset="1" stop-color="#E6F0CD"/>
</linearGradient>
</defs>
</svg>
