<svg width="20" height="20" viewBox="0 0 20 20" fill="none" xmlns="http://www.w3.org/2000/svg">
<path d="M10 7.5C10.6631 7.5 11.299 7.76339 11.7678 8.23223C12.2366 8.70107 12.5 9.33696 12.5 10C12.5 10.663 12.2366 11.2989 11.7678 11.7678C11.299 12.2366 10.6631 12.5 10 12.5C9.337 12.5 8.70111 12.2366 8.23227 11.7678C7.76343 11.2989 7.50004 10.663 7.50004 10C7.50004 9.33696 7.76343 8.70107 8.23227 8.23223C8.70111 7.76339 9.337 7.5 10 7.5ZM10 3.75C14.1667 3.75 17.725 6.34167 19.1667 10C17.725 13.6583 14.1667 16.25 10 16.25C5.83337 16.25 2.27504 13.6583 0.833374 10C2.27504 6.34167 5.83337 3.75 10 3.75ZM2.65004 10C3.32359 11.3753 4.36946 12.534 5.66877 13.3444C6.96808 14.1548 8.4687 14.5844 10 14.5844C11.5314 14.5844 13.032 14.1548 14.3313 13.3444C15.6306 12.534 16.6765 11.3753 17.35 10C16.6765 8.62474 15.6306 7.46604 14.3313 6.65562C13.032 5.8452 11.5314 5.41557 10 5.41557C8.4687 5.41557 6.96808 5.8452 5.66877 6.65562C4.36946 7.46604 3.32359 8.62474 2.65004 10Z" fill="#02B5D3"/>
</svg>
