<svg width="20" height="20" viewBox="0 0 20 20" fill="none" xmlns="http://www.w3.org/2000/svg">
<path d="M5.72753 14.2735C4.19003 13.1818 2.97336 11.7618 2.28586 10.8652C2.09362 10.6177 1.98926 10.3132 1.98926 9.99976C1.98926 9.68636 2.09362 9.38187 2.28586 9.13435C3.53003 7.51018 6.51503 4.16602 10 4.16602C11.5634 4.16602 13.025 4.83852 14.275 5.72768" stroke="#02B5D3" stroke-width="2" stroke-linecap="round" stroke-linejoin="round"/>
<path d="M11.775 8.23908C11.5436 8.00381 11.2678 7.81668 10.9637 7.68849C10.6596 7.5603 10.3332 7.49359 10.0031 7.49221C9.67313 7.49083 9.34611 7.5548 9.04094 7.68043C8.73578 7.80607 8.4585 7.99088 8.22512 8.22421C7.99173 8.45754 7.80685 8.73477 7.68115 9.03991C7.55544 9.34505 7.49139 9.67206 7.4927 10.0021C7.494 10.3321 7.56063 10.6586 7.68875 10.9627C7.81686 11.2668 8.00393 11.5426 8.23915 11.7741" stroke="#02B5D3" stroke-width="2" stroke-linecap="round" stroke-linejoin="round"/>
<path d="M3.33337 16.6663L16.6667 3.33301" stroke="#02B5D3" stroke-width="2" stroke-linecap="round" stroke-linejoin="round"/>
<path d="M8.33337 15.5867C8.87438 15.7477 9.43558 15.8308 10 15.8333C13.485 15.8333 16.47 12.4892 17.7142 10.865C17.9064 10.6173 18.0106 10.3126 18.0105 9.99902C18.0103 9.68547 17.9058 9.38089 17.7134 9.13333C17.2761 8.56291 16.807 8.0176 16.3084 7.5" stroke="#02B5D3" stroke-width="2" stroke-linecap="round" stroke-linejoin="round"/>
</svg>
