<svg width="51" height="51" viewBox="0 0 51 51" fill="none" xmlns="http://www.w3.org/2000/svg">
<g clip-path="url(#clip0_312_19891)">
<path d="M1.05278 27.3881C1.05278 26.6659 1.05278 26.0575 1 25.5159H2.36944L2.43333 26.4464H2.47222C2.66991 26.1093 2.95488 25.8318 3.29709 25.6431C3.6393 25.4544 4.02608 25.3615 4.41667 25.3742C4.79145 25.3637 5.16027 25.4697 5.47223 25.6777C5.78419 25.8856 6.02392 26.1853 6.15833 26.5353H6.18611C6.37824 26.2163 6.64279 25.947 6.95833 25.7492C7.32854 25.4919 7.77162 25.3605 8.22222 25.3742C9.26667 25.3742 10.325 26.0825 10.325 28.0992V31.802H8.77778V28.3325C8.77778 27.2881 8.41667 26.6659 7.66667 26.6659C7.41835 26.674 7.17855 26.7584 6.97979 26.9074C6.78103 27.0565 6.63292 27.2631 6.55556 27.4992C6.50889 27.6714 6.48279 27.8486 6.47778 28.027V31.802H4.91111V28.1603C4.91111 27.2853 4.56389 26.6631 3.82778 26.6631C3.56766 26.6754 3.318 26.7692 3.11412 26.9312C2.91023 27.0932 2.76245 27.3153 2.69167 27.5659C2.62897 27.7307 2.59879 27.9062 2.60278 28.0825V31.802H1.05278V27.3881Z" fill="white"/>
<path d="M16.35 30.2946C16.3422 30.7989 16.3719 31.303 16.4389 31.8029H15.0083L14.9056 31.1112H14.8667C14.6401 31.3816 14.3551 31.597 14.0332 31.7414C13.7113 31.8857 13.3609 31.9552 13.0083 31.9446C12.7537 31.9598 12.4986 31.9226 12.2589 31.8352C12.0192 31.7478 11.8 31.6122 11.6149 31.4367C11.4297 31.2612 11.2826 31.0495 11.1826 30.8148C11.0825 30.5802 11.0317 30.3275 11.0333 30.0723C11.0333 28.4835 12.4389 27.6862 14.7639 27.6973V27.5946C14.7639 27.1807 14.5944 26.4835 13.4861 26.4835C12.8909 26.4843 12.3068 26.6445 11.7944 26.9473L11.4861 25.914C12.1808 25.5331 12.9635 25.3415 13.7556 25.3585C15.7694 25.3585 16.35 26.6362 16.35 28.0029V30.2946ZM14.8 28.7335C13.6889 28.7085 12.6056 28.9529 12.6056 29.9085C12.5951 30.0289 12.611 30.1502 12.6522 30.2639C12.6933 30.3776 12.7587 30.481 12.8438 30.5669C12.9289 30.6528 13.0317 30.7191 13.145 30.7613C13.2583 30.8035 13.3794 30.8206 13.5 30.8112C13.7734 30.8185 14.0421 30.7383 14.2669 30.5825C14.4916 30.4266 14.6609 30.2032 14.75 29.9446C14.7852 29.8322 14.803 29.7151 14.8028 29.5973L14.8 28.7335Z" fill="white"/>
<path d="M17.4472 27.3899C17.4472 26.6676 17.4472 26.0593 17.3972 25.5176H18.7861L18.8639 26.4621H18.9028C19.1106 26.1206 19.4051 25.8402 19.7564 25.6494C20.1077 25.4587 20.5032 25.3643 20.9028 25.376C22.0139 25.376 23.125 26.0843 23.125 28.0732V31.8037H21.5556V28.2565C21.5556 27.351 21.2139 26.6676 20.35 26.6676C20.0722 26.6739 19.8033 26.7671 19.5811 26.934C19.3589 27.1009 19.1946 27.3331 19.1111 27.5982C19.0652 27.7654 19.0464 27.9389 19.0556 28.1121V31.8037H17.4472V27.3899Z" fill="white"/>
<path d="M30.0194 22.9941V30.033C30.0194 30.6775 30.0472 31.3747 30.0722 31.8025H28.6528L28.5889 30.808H28.5639C28.3584 31.1671 28.0583 31.4628 27.6964 31.6632C27.3344 31.8635 26.9245 31.9607 26.5111 31.9441C25.0139 31.9441 23.8278 30.6664 23.8278 28.733C23.8278 26.6275 25.1306 25.3775 26.6389 25.3775C27.5028 25.3775 28.1222 25.7386 28.4056 26.2108H28.4306V22.9941H30.0194ZM28.4333 28.1358C28.4335 27.9969 28.4205 27.8583 28.3944 27.7219C28.3302 27.4073 28.1589 27.1246 27.9098 26.922C27.6606 26.7194 27.3489 26.6095 27.0278 26.6108C26 26.6025 25.4444 27.4997 25.4444 28.6803C25.4444 29.8608 26 30.6664 27.0194 30.6664C27.3406 30.6677 27.6523 30.5577 27.9014 30.3552C28.1506 30.1526 28.3219 29.8699 28.3861 29.5553C28.4244 29.4037 28.4422 29.2477 28.4389 29.0914L28.4333 28.1358Z" fill="white"/>
<path d="M31.1417 31.8037V25.5176H32.7417V31.8037H31.1417Z" fill="white"/>
<path d="M33.8639 27.5453C33.8639 26.6925 33.8639 26.0869 33.8139 25.5175H35.2028L35.2528 26.7175H35.3056C35.4212 26.3574 35.6517 26.045 35.9617 25.8283C36.2718 25.6116 36.6443 25.5024 37.0222 25.5175C37.146 25.5046 37.2707 25.5046 37.3944 25.5175V26.9064C37.2422 26.8722 37.0866 26.8545 36.9306 26.8536C36.5861 26.8416 36.2495 26.958 35.9862 27.1803C35.7228 27.4026 35.5515 27.7148 35.5056 28.0564C35.4736 28.2184 35.456 28.3829 35.4528 28.5481V31.8036H33.8639V27.5453Z" fill="white"/>
<path d="M38.125 31.8037V25.5176H39.725V31.8037H38.125Z" fill="white"/>
<path d="M49.6833 18.8722C48.8917 17.9694 48.05 18.3778 47.3806 18.7111C47.1028 18.85 45.0667 20.0028 45.0667 20.0028C44.6814 20.1864 44.247 20.2404 43.8285 20.1568C43.4099 20.0732 43.0296 19.8564 42.7444 19.5389C42.7116 19.4986 42.6819 19.4559 42.6556 19.4111L42.5778 19.275C42.4432 19.0434 42.2939 18.8207 42.1306 18.6083C42.0321 18.4793 41.9254 18.3569 41.8111 18.2417C41.05 17.4722 39.8306 16.9333 37.7972 17.9111C36.8333 18.4667 33.6944 20.2639 33.6944 20.2639C33.2964 20.4569 32.8444 20.5085 32.4131 20.41C31.9818 20.3115 31.597 20.0689 31.3222 19.7222C31.3095 19.7057 31.2983 19.688 31.2889 19.6694L31.25 19.6028L31.05 19.2778C30.9639 19.1444 30.8694 19 30.7722 18.8639C30.67 18.7364 30.5606 18.6149 30.4444 18.5C29.6889 17.7361 28.4778 17.1972 26.4611 18.1583L22.3889 20.475L20.3194 21.6667L21.3944 22.9861C21.8472 23.4167 22.6972 24.1222 24.0111 23.5417L27.6667 21.4167C30.7694 19.7139 32.3 21.3417 32.975 22.425C32.9972 22.4583 33.0194 22.4945 33.0389 22.5278L33.0583 22.5667L33.1361 22.6917C33.2901 22.9421 33.5064 23.1483 33.764 23.29C34.0216 23.4317 34.3116 23.5041 34.6056 23.5C34.9312 23.4818 35.2459 23.3762 35.5167 23.1944L39.0278 21.1583C42.1694 19.4361 43.725 21.1583 44.3889 22.2528C44.4398 22.3487 44.4963 22.4414 44.5583 22.5306C44.7065 22.7556 44.9087 22.9398 45.1465 23.0665C45.3843 23.1932 45.65 23.2582 45.9194 23.2556C46.2273 23.2295 46.5254 23.1346 46.7917 22.9778L51 20.5333C50.5947 19.9538 50.155 19.3991 49.6833 18.8722Z" fill="url(#paint0_linear_312_19891)"/>
</g>
<defs>
<linearGradient id="paint0_linear_312_19891" x1="22.8923" y1="26.9071" x2="55.6665" y2="11.7708" gradientUnits="userSpaceOnUse">
<stop stop-color="#FCB813"/>
<stop offset="0.22" stop-color="#FFCA05"/>
<stop offset="0.39" stop-color="#F9A51A"/>
<stop offset="0.53" stop-color="#FFCA05"/>
<stop offset="0.65" stop-color="#FAAA17"/>
<stop offset="0.69" stop-color="#FDBC0D"/>
<stop offset="0.72" stop-color="#FEC707"/>
<stop offset="0.76" stop-color="#FFCA05"/>
<stop offset="0.8" stop-color="#FFCA05"/>
<stop offset="1" stop-color="#FFCA05"/>
</linearGradient>
<clipPath id="clip0_312_19891">
<rect width="50" height="20" fill="white" transform="translate(1 15)"/>
</clipPath>
</defs>
</svg>
