<svg width="51" height="51" viewBox="0 0 51 51" fill="none" xmlns="http://www.w3.org/2000/svg">
<g clip-path="url(#clip0_312_19860)">
<path d="M2.68056 31.6673C4.81697 32.6401 7.13067 33.163 9.47778 33.2034H9.66111C12.0701 33.1882 14.4488 32.6648 16.6417 31.6673L16.7583 31.6173L16.8 31.5007C17.443 29.5544 17.7977 27.5246 17.8528 25.4757V24.5534C17.8402 23.7559 17.7781 22.9599 17.6667 22.1701C17.5833 21.5645 17.4667 20.959 17.325 20.3534C17.1833 19.7479 17.0083 19.1423 16.8111 18.5368L16.7694 18.4201L16.6528 18.3701C14.405 17.3196 11.9613 16.7536 9.48056 16.709H9.43056C7.0753 16.7119 4.75533 17.2816 2.66667 18.3701L2.53334 18.5118C1.64573 20.5277 1.16342 22.6985 1.11389 24.9007V25.1784C1.13608 27.3731 1.6197 29.5385 2.53334 31.534L2.68056 31.6673ZM3.01389 18.8201C4.99991 17.8024 7.19898 17.2703 9.43056 17.2673H9.48056C11.8373 17.3096 14.1599 17.8382 16.3028 18.8201C16.4778 19.3757 16.6361 19.9312 16.7583 20.4729C16.8806 21.0145 17.0167 21.6673 17.1111 22.2451C17.5407 25.2545 17.2679 28.3226 16.3139 31.209C14.2241 32.1417 11.9635 32.6307 9.675 32.6451H9.49167C7.25819 32.6037 5.05599 32.1124 3.01667 31.2007C2.11969 29.2262 1.66284 27.0803 1.67778 24.9118C1.72286 22.8154 2.17672 20.7481 3.01389 18.8257V18.8201Z" fill="white"/>
<path d="M9.62778 29.5666C9.78611 28.0138 9.64445 26.3805 10.1417 24.9027C10.6389 23.4249 12.4667 22.4388 12.325 20.9194C12.2786 20.2317 11.9672 19.5889 11.4563 19.1262C10.9454 18.6635 10.275 18.4171 9.58611 18.4388C9.24056 18.4304 8.89691 18.4923 8.576 18.6207C8.25508 18.7491 7.96358 18.9414 7.71916 19.1858C7.47475 19.4302 7.28252 19.7217 7.15413 20.0426C7.02573 20.3635 6.96385 20.7072 6.97222 21.0527C7.00556 22.6055 8.675 23.411 9.11389 24.8222C9.58611 26.3277 9.51389 27.9805 9.62778 29.5666Z" fill="white"/>
<path d="M10.5833 25.3171C10.2028 26.4865 10.2028 27.8171 10.2667 29.1837C10.8806 28.8837 11.2889 28.4698 11.9333 28.2782C13.1028 27.9476 14.025 28.5198 15.0222 27.8143C15.5278 27.4421 15.4444 26.3532 15.3222 25.7059C14.2483 26.68 12.8793 27.2667 11.4333 27.3726C11.8472 27.0643 12.1306 26.5393 12.7944 26.4754C13.3744 26.4419 13.9287 26.2254 14.3779 25.8571C14.8271 25.4887 15.148 24.9875 15.2944 24.4254C15.5111 23.3143 14.1583 22.2421 13.2361 22.4809C11.8861 22.8671 11 23.9893 10.5833 25.3171Z" fill="white"/>
<path d="M4.24166 27.8131C5.23889 28.5186 6.15833 27.9464 7.33055 28.277C7.98611 28.4686 8.38333 28.8825 8.99722 29.1825C9.07222 27.7936 9.06389 26.4853 8.68889 25.3159C8.26666 23.9881 7.38889 22.8659 6.04444 22.4992C5.12222 22.2492 3.76111 23.3325 3.98611 24.4436C4.13257 25.0058 4.45344 25.507 4.90262 25.8753C5.35181 26.2437 5.90618 26.4601 6.48611 26.4936C7.14166 26.552 7.43333 27.0825 7.84722 27.3909C6.40081 27.2867 5.03131 26.6997 3.95833 25.7242C3.81944 26.352 3.73611 27.4409 4.24166 27.8131Z" fill="white"/>
<path d="M7.33889 30.5559C7.251 30.5143 7.15736 30.4862 7.06111 30.4725L6.95278 30.4559L6.52222 30.3809L6.30556 31.6336L6.55556 31.6753L6.64722 31.1531H6.70556C6.74826 31.1598 6.79016 31.171 6.83056 31.1864C6.85482 31.2065 6.87714 31.2288 6.89722 31.2531C6.89722 31.2781 6.93056 31.3197 6.95556 31.3781C6.98056 31.4364 6.98056 31.4364 6.99722 31.4614L7.11111 31.7836L7.41111 31.842L7.30278 31.5642C7.27473 31.4829 7.23843 31.4047 7.19445 31.3309C7.16253 31.2832 7.12314 31.241 7.07778 31.2059C7.17643 31.2156 7.27524 31.189 7.35556 31.1309C7.42355 31.0774 7.46832 30.9998 7.48056 30.9142C7.49671 30.8447 7.49089 30.7719 7.46389 30.7059C7.44175 30.6424 7.39734 30.5891 7.33889 30.5559ZM7.22222 30.8809C7.21517 30.9141 7.20095 30.9454 7.18056 30.9725C7.15759 30.9945 7.12855 31.009 7.09722 31.0142C7.04674 31.0146 6.99639 31.009 6.94722 30.9975C6.92222 30.9975 6.89722 30.9975 6.86389 30.9975L6.68056 30.9642L6.73056 30.6475L6.93056 30.6809H6.94722C7.00344 30.6884 7.05911 30.6995 7.11389 30.7142C7.15174 30.7241 7.18447 30.7479 7.20556 30.7809C7.22318 30.8131 7.22907 30.8504 7.22222 30.8864V30.8809Z" fill="white"/>
<path d="M5.52778 30.4227C5.56959 30.3991 5.61566 30.384 5.66334 30.3783C5.71101 30.3726 5.75935 30.3763 5.80556 30.3894C5.86988 30.4053 5.92795 30.4401 5.97222 30.4894C6.01231 30.5387 6.03305 30.6009 6.03056 30.6644L6.28889 30.6811C6.29874 30.5703 6.26595 30.4601 6.19722 30.3727C6.11069 30.2733 5.99332 30.2058 5.86389 30.1811C5.76179 30.1469 5.65234 30.1412 5.54722 30.1644C5.44049 30.1872 5.34344 30.2425 5.26945 30.3227C5.18552 30.4152 5.12544 30.5267 5.09445 30.6477C5.06415 30.7619 5.05847 30.8812 5.07778 30.9977C5.10393 31.1031 5.15873 31.1993 5.23611 31.2755C5.32467 31.3586 5.4341 31.4162 5.55278 31.4422C5.65348 31.4674 5.75766 31.4759 5.86111 31.4672C5.95869 31.467 6.05449 31.4411 6.13889 31.3922L6.27222 30.9033L5.72222 30.7699L5.67222 30.9783L5.95 31.0533L5.90834 31.2116C5.85697 31.2304 5.80396 31.2443 5.75 31.2533C5.69392 31.2562 5.63773 31.2506 5.58334 31.2366C5.53537 31.2255 5.4904 31.2041 5.45154 31.1739C5.41268 31.1437 5.38088 31.1054 5.35834 31.0616C5.31603 30.9469 5.31603 30.8208 5.35834 30.7061C5.37959 30.5946 5.43961 30.4942 5.52778 30.4227Z" fill="white"/>
<path d="M9.58611 30.753C9.5075 30.7313 9.42583 30.7229 9.34444 30.728H9.27778H8.87222L8.84722 31.9975H9.10555V31.5169H9.33333C9.39991 31.5219 9.46676 31.5219 9.53333 31.5169C9.58197 31.5011 9.62933 31.4816 9.675 31.4586C9.71742 31.4228 9.75398 31.3806 9.78333 31.3336C9.81076 31.2705 9.82494 31.2024 9.825 31.1336C9.83524 31.0448 9.81142 30.9554 9.75833 30.8836C9.71875 30.8205 9.6575 30.7741 9.58611 30.753ZM9.54444 31.2252C9.52252 31.2519 9.4937 31.2721 9.46111 31.2836C9.42347 31.2958 9.384 31.3014 9.34444 31.3002H9.11944V30.9363H9.24444H9.33333C9.375 30.9363 9.4 30.9363 9.425 30.9363C9.46469 30.9419 9.50061 30.9629 9.525 30.9947C9.53902 31.0103 9.54931 31.029 9.55508 31.0492C9.56085 31.0694 9.56197 31.0906 9.55833 31.1113C9.56388 31.1499 9.55909 31.1892 9.54444 31.2252Z" fill="white"/>
<path d="M8.36667 31.3894C8.36667 31.4894 8.35 31.5644 8.34167 31.6061C8.3262 31.648 8.29678 31.6833 8.25833 31.7061C8.20874 31.7372 8.14943 31.7491 8.09167 31.7394C8.02983 31.7383 7.97053 31.7146 7.925 31.6727C7.88827 31.6372 7.86476 31.5901 7.85833 31.5394C7.85833 31.5144 7.85833 31.4394 7.85833 31.3311L7.91667 30.6422L7.66667 30.6172L7.6 31.2977C7.59141 31.4059 7.59141 31.5146 7.6 31.6227C7.60827 31.6764 7.62818 31.7276 7.65833 31.7727C7.698 31.82 7.74602 31.8595 7.8 31.8894C7.88657 31.9318 7.98141 31.9545 8.07778 31.9561C8.15856 31.9689 8.2412 31.9632 8.31945 31.9394C8.38219 31.9243 8.43975 31.8926 8.48611 31.8477C8.52528 31.805 8.55383 31.7536 8.56945 31.6977C8.60251 31.5926 8.61937 31.483 8.61945 31.3727L8.67778 30.7089L8.41945 30.6839L8.36667 31.3894Z" fill="white"/>
<path d="M11.2778 31.2494C11.3311 31.2213 11.3746 31.1777 11.4028 31.1244C11.431 31.0737 11.4427 31.0155 11.4361 30.9578C11.4297 30.9049 11.4127 30.8539 11.3861 30.8078C11.356 30.7694 11.3183 30.7376 11.2752 30.7147C11.2322 30.6917 11.1848 30.678 11.1361 30.6744C11.0697 30.6658 11.0025 30.6658 10.9361 30.6744C10.9322 30.6727 10.9279 30.6718 10.9236 30.6718C10.9193 30.6718 10.915 30.6727 10.9111 30.6744L10.4056 30.7161L10.5222 31.9856L10.9472 31.9439H10.9639C11.1222 31.9272 11.2417 31.9189 11.2722 31.9106C11.3319 31.8958 11.3883 31.8704 11.4389 31.8356C11.4814 31.7955 11.5154 31.7473 11.5389 31.6939C11.5554 31.637 11.5638 31.5781 11.5639 31.5189C11.56 31.4495 11.5303 31.3841 11.4806 31.3356C11.425 31.2841 11.3533 31.2537 11.2778 31.2494ZM10.6806 30.9161L10.8306 30.8994C10.8722 30.8994 10.9056 30.8994 10.9389 30.8994C10.9749 30.8966 11.0112 30.8966 11.0472 30.8994C11.066 30.8975 11.085 30.9004 11.1025 30.9076C11.12 30.9149 11.1353 30.9264 11.1472 30.9411C11.1613 30.9517 11.1724 30.9657 11.1797 30.9817C11.187 30.9977 11.1901 31.0152 11.1889 31.0328C11.1939 31.0502 11.1942 31.0686 11.1898 31.0861C11.1854 31.1037 11.1765 31.1198 11.1639 31.1328C11.1371 31.1618 11.1023 31.1821 11.0639 31.1911C11.0472 31.1911 11.0056 31.1911 10.9389 31.1911C10.9197 31.1952 10.8998 31.1952 10.8806 31.1911L10.7056 31.2078L10.6806 30.9161ZM11.2639 31.6661C11.2436 31.6945 11.2142 31.7151 11.1806 31.7244C11.1231 31.7379 11.0645 31.7462 11.0056 31.7494H10.9472L10.7639 31.7661L10.7389 31.4244L10.9389 31.4078C11.0136 31.3987 11.0892 31.3987 11.1639 31.4078C11.1967 31.4141 11.2262 31.4318 11.2472 31.4578C11.2709 31.4862 11.2854 31.521 11.2889 31.5578C11.2932 31.5957 11.2844 31.6339 11.2639 31.6661Z" fill="white"/>
<path d="M12.4417 31.4754C12.4021 31.526 12.3461 31.5614 12.2833 31.5754C12.2406 31.584 12.1965 31.5824 12.1546 31.5708C12.1126 31.5593 12.0739 31.538 12.0417 31.5087C11.9592 31.4185 11.9067 31.305 11.8917 31.1837C11.8598 31.0666 11.8727 30.9418 11.9278 30.8337C11.9506 30.7967 11.9809 30.765 12.0168 30.7406C12.0527 30.7162 12.0934 30.6996 12.1361 30.692C12.1992 30.6817 12.264 30.6935 12.3194 30.7254C12.3727 30.7549 12.4139 30.802 12.4361 30.8587L12.6778 30.7587C12.6457 30.6734 12.5873 30.6004 12.5111 30.5504C12.3912 30.4779 12.2477 30.4549 12.1111 30.4865C12.0321 30.4978 11.9565 30.526 11.8894 30.5691C11.8223 30.6122 11.7653 30.6693 11.7222 30.7365C11.6289 30.8905 11.599 31.0747 11.6389 31.2504C11.6631 31.4232 11.7526 31.5803 11.8889 31.6893C11.9516 31.7346 12.0227 31.7668 12.0981 31.784C12.1736 31.8012 12.2517 31.803 12.3278 31.7892C12.4506 31.7762 12.5642 31.7182 12.6467 31.6264C12.7293 31.5346 12.775 31.4155 12.775 31.292L12.5167 31.2587C12.5138 31.3368 12.4877 31.4122 12.4417 31.4754Z" fill="white"/>
<path d="M13.3722 30.2305L13.0944 30.2971L12.9444 31.6499L13.2222 31.5832V31.2749L13.4139 31.2332L13.7139 31.1499L13.8972 31.4082L14.175 31.3416L13.4222 30.3055L13.3722 30.2305ZM13.4222 31.011L13.2556 31.0527L13.3056 30.5555L13.4222 30.7221L13.5889 30.9721L13.4222 31.011Z" fill="white"/>
<path d="M30.8028 26.9605C30.6488 26.374 30.352 25.8348 29.9389 25.391C29.8444 25.2827 29.75 25.1799 29.6444 25.0633L29.8694 24.9216C30.5532 24.5244 31.1263 23.9618 31.5361 23.2855C31.8299 22.8 31.9467 22.2278 31.8667 21.666C31.8058 21.2975 31.6602 20.9482 31.4413 20.6455C31.2225 20.3428 30.9364 20.095 30.6056 19.9216C29.8446 19.4897 28.9802 19.2736 28.1056 19.2966C26.7 19.2966 25.2972 19.316 23.8917 19.3216C23.8468 19.318 23.802 19.3291 23.7639 19.3531C23.7259 19.3772 23.6966 19.4129 23.6806 19.4549C23.2694 20.2466 22.8472 21.0383 22.4444 21.8299L21.9056 22.8688H22.7917L20.6111 31.0216H26.3417C26.5531 31.0259 26.7646 31.0175 26.975 30.9966C27.6409 30.9383 28.2868 30.7392 28.8701 30.4127C29.4533 30.0861 29.9606 29.6394 30.3583 29.1021C30.5899 28.8022 30.7502 28.4535 30.8272 28.0825C30.9042 27.7115 30.8959 27.3278 30.8028 26.9605ZM27.55 27.1799C27.4889 27.4281 27.3461 27.6485 27.1446 27.8057C26.943 27.9629 26.6945 28.0478 26.4389 28.0466C25.9972 28.0244 25.5528 28.0466 25.075 28.0466L25.2778 27.2133C25.3361 26.9771 25.3972 26.7438 25.4472 26.5077C25.4481 26.4875 25.4533 26.4677 25.4624 26.4497C25.4716 26.4317 25.4845 26.4158 25.5003 26.4032C25.5161 26.3905 25.5344 26.3814 25.554 26.3765C25.5736 26.3715 25.594 26.3708 25.6139 26.3744C26.0583 26.3744 26.5 26.3938 26.9444 26.3744C27.4556 26.3438 27.6667 26.7466 27.55 27.1799ZM28.2222 23.3771C28.1829 23.5896 28.0683 23.7807 27.8994 23.9155C27.7305 24.0502 27.5187 24.1194 27.3028 24.1105C26.9028 24.0883 26.5 24.1105 26.0694 24.1105C26.0889 23.966 26.0972 23.8327 26.125 23.7244C26.2083 23.3633 26.3028 23.0049 26.3861 22.6438C26.3875 22.6261 26.3924 22.6089 26.4007 22.5932C26.4089 22.5775 26.4203 22.5636 26.434 22.5524C26.4478 22.5412 26.4637 22.533 26.4808 22.5282C26.4979 22.5233 26.5157 22.522 26.5333 22.5244C26.9056 22.5244 27.2778 22.5244 27.6444 22.5244C27.7438 22.5304 27.8404 22.5592 27.9269 22.6084C28.0134 22.6577 28.0874 22.7262 28.1432 22.8086C28.199 22.891 28.2352 22.9851 28.2489 23.0837C28.2626 23.1822 28.2535 23.2826 28.2222 23.3771Z" fill="white"/>
<path d="M51 31.2454L50.5472 19.4592H50.2889C48.5222 19.4592 46.7565 19.4592 44.9917 19.4592C44.9312 19.4516 44.8699 19.464 44.8172 19.4946C44.7645 19.5252 44.7233 19.5724 44.7 19.6287C44.2083 20.4898 43.7111 21.3454 43.2167 22.2037L42.8222 22.8898H43.8444L39.4944 31.2009H39.5639H43.6694C43.7611 31.2009 43.7917 31.1592 43.8222 31.0842C44.0639 30.5092 44.3139 29.937 44.5556 29.362C44.5917 29.2787 44.6278 29.2259 44.7333 29.2259C45.4463 29.2259 46.1593 29.2259 46.8722 29.2259C46.9889 29.2259 47.0333 29.2592 47.0306 29.387C47.0306 29.9426 47.0306 30.4981 47.0306 31.0537C47.0306 31.2009 47.0694 31.2454 47.2194 31.2454C48.4167 31.2454 49.6167 31.2454 50.8139 31.2454H51ZM47.0139 26.4204H45.8222L46.9806 23.7092H47.0139V26.4204Z" fill="white"/>
<path d="M37.3278 31.6672C37.8042 31.6451 38.2736 31.5437 38.7167 31.3672C38.7975 31.3301 38.8632 31.2663 38.9028 31.1866C39.2222 30.4644 39.5333 29.7394 39.8472 29.0172L40.4944 27.5144H40.4722L40.4194 27.545C39.3316 28.2001 38.0316 28.4064 36.7944 28.12C35.9806 27.9311 35.3583 27.4783 35.1417 26.6227C34.9941 26.1372 35.005 25.6172 35.1728 25.1382C35.3406 24.6592 35.6566 24.2462 36.075 23.9589C37.5 22.895 39.0417 22.8339 40.6278 23.5922C40.8186 23.6976 41.004 23.8126 41.1833 23.9366L43.1111 20.6894L40.4 19.3672C40.3722 19.4062 40.3472 19.447 40.325 19.4894C40.3171 19.5178 40.3035 19.5443 40.2851 19.5673C40.2667 19.5903 40.2439 19.6094 40.2179 19.6234C40.192 19.6374 40.1635 19.646 40.1342 19.6488C40.1049 19.6515 40.0753 19.6483 40.0472 19.6394C39.9252 19.6186 39.8016 19.6084 39.6778 19.6089C38.5489 19.5829 37.4233 19.7395 36.3444 20.0727C34.6756 20.5646 33.2454 21.6519 32.325 23.1283C31.511 24.3872 31.1423 25.8825 31.2778 27.3755C31.3289 28.2305 31.64 29.0495 32.1694 29.7227C32.9248 30.6245 33.952 31.257 35.0972 31.5255C35.8273 31.6991 36.5816 31.747 37.3278 31.6672Z" fill="white"/>
</g>
<defs>
<clipPath id="clip0_312_19860">
<rect width="50" height="20" fill="white" transform="translate(1 15)"/>
</clipPath>
</defs>
</svg>
