<svg width="18" height="14" viewBox="0 0 18 14" fill="none" xmlns="http://www.w3.org/2000/svg">
<path d="M17.625 2.66422C17.415 1.89172 16.8075 1.27672 16.035 1.07422C14.6325 0.699219 9 0.699219 9 0.699219C9 0.699219 3.36751 0.699219 1.96501 1.07422C1.19251 1.28422 0.5775 1.89172 0.375 2.66422C0 4.06672 0 6.99922 0 6.99922C0 6.99922 0 9.93172 0.375 11.3342C0.585 12.1067 1.19251 12.7217 1.96501 12.9242C3.36751 13.2992 9 13.2992 9 13.2992C9 13.2992 14.6325 13.2992 16.035 12.9242C16.8075 12.7142 17.4225 12.1067 17.625 11.3342C18 9.93172 18 6.99922 18 6.99922C18 6.99922 18 4.07422 17.625 2.66422ZM7.2 9.69922V4.29922L11.88 6.99922L7.2 9.69922Z" fill="white"/>
</svg>
