<svg width="375" height="553" viewBox="0 0 375 553" fill="none" xmlns="http://www.w3.org/2000/svg">
<path d="M375 46.6367H-1" stroke="#333333" stroke-width="0.8" stroke-miterlimit="10"/>
<path d="M375 86.2129H-1" stroke="#333333" stroke-width="0.8" stroke-miterlimit="10"/>
<path d="M375 7.06152H-1" stroke="#333333" stroke-width="0.8" stroke-miterlimit="10"/>
<path d="M375 125.787H-1" stroke="#333333" stroke-width="0.8" stroke-miterlimit="10"/>
<path d="M375 165.363H-1" stroke="#333333" stroke-width="0.8" stroke-miterlimit="10"/>
<path d="M375 204.938H-1" stroke="#333333" stroke-width="0.8" stroke-miterlimit="10"/>
<path d="M375 286.637H-1" stroke="#333333" stroke-width="0.8" stroke-miterlimit="10"/>
<path d="M375 326.213H-1" stroke="#333333" stroke-width="0.8" stroke-miterlimit="10"/>
<path d="M375 247.062H-1" stroke="#333333" stroke-width="0.8" stroke-miterlimit="10"/>
<path d="M375 365.787H-1" stroke="#333333" stroke-width="0.8" stroke-miterlimit="10"/>
<path d="M375 405.363H-1" stroke="#333333" stroke-width="0.8" stroke-miterlimit="10"/>
<path d="M375 444.938H-1" stroke="#333333" stroke-width="0.8" stroke-miterlimit="10"/>
<path d="M375 526.637H-1" stroke="#333333" stroke-width="0.8" stroke-miterlimit="10"/>
<path d="M375 487.062H-1" stroke="#333333" stroke-width="0.8" stroke-miterlimit="10"/>
<path d="M167 553V0" stroke="#333333" stroke-width="0.8" stroke-miterlimit="10"/>
<path d="M128 553V0" stroke="#333333" stroke-width="0.8" stroke-miterlimit="10"/>
<path d="M88 553V0" stroke="#333333" stroke-width="0.8" stroke-miterlimit="10"/>
<path d="M49 553V0" stroke="#333333" stroke-width="0.8" stroke-miterlimit="10"/>
<path d="M9 553V0" stroke="#333333" stroke-width="0.8" stroke-miterlimit="10"/>
<path d="M286 553V0" stroke="#333333" stroke-width="0.8" stroke-miterlimit="10"/>
<path d="M325 553V0" stroke="#333333" stroke-width="0.8" stroke-miterlimit="10"/>
<path d="M365 553V0" stroke="#333333" stroke-width="0.8" stroke-miterlimit="10"/>
<path d="M246 553V0" stroke="#333333" stroke-width="0.8" stroke-miterlimit="10"/>
<path d="M207 553V0" stroke="#333333" stroke-width="0.8" stroke-miterlimit="10"/>
</svg>
