<svg width="357" height="553" viewBox="0 0 357 553" fill="none" xmlns="http://www.w3.org/2000/svg">
<path d="M356 40H0" stroke="#333333" stroke-width="0.8" stroke-miterlimit="10"/>
<path d="M356 79H0" stroke="#333333" stroke-width="0.8" stroke-miterlimit="10"/>
<path d="M356 119H0" stroke="#333333" stroke-width="0.8" stroke-miterlimit="10"/>
<path d="M356 158H0" stroke="#333333" stroke-width="0.8" stroke-miterlimit="10"/>
<path d="M356 198H0" stroke="#333333" stroke-width="0.8" stroke-miterlimit="10"/>
<path d="M356 280H0" stroke="#333333" stroke-width="0.8" stroke-miterlimit="10"/>
<path d="M356 319H0" stroke="#333333" stroke-width="0.8" stroke-miterlimit="10"/>
<path d="M356 240H0" stroke="#333333" stroke-width="0.8" stroke-miterlimit="10"/>
<path d="M356 359H0" stroke="#333333" stroke-width="0.8" stroke-miterlimit="10"/>
<path d="M356 398H0" stroke="#333333" stroke-width="0.8" stroke-miterlimit="10"/>
<path d="M356 438H0" stroke="#333333" stroke-width="0.8" stroke-miterlimit="10"/>
<path d="M356 520H0" stroke="#333333" stroke-width="0.8" stroke-miterlimit="10"/>
<path d="M356 480H0" stroke="#333333" stroke-width="0.8" stroke-miterlimit="10"/>
<path d="M158 553V0" stroke="#333333" stroke-width="0.8" stroke-miterlimit="10"/>
<path d="M119 553V0" stroke="#333333" stroke-width="0.8" stroke-miterlimit="10"/>
<path d="M79 553V0" stroke="#333333" stroke-width="0.8" stroke-miterlimit="10"/>
<path d="M40 553V0" stroke="#333333" stroke-width="0.8" stroke-miterlimit="10"/>
<path d="M277 553V0" stroke="#333333" stroke-width="0.8" stroke-miterlimit="10"/>
<path d="M316 553V0" stroke="#333333" stroke-width="0.8" stroke-miterlimit="10"/>
<path d="M356 553V0" stroke="#333333" stroke-width="0.8" stroke-miterlimit="10"/>
<path d="M237 553V0" stroke="#333333" stroke-width="0.8" stroke-miterlimit="10"/>
<path d="M198 553V0" stroke="#333333" stroke-width="0.8" stroke-miterlimit="10"/>
</svg>
