<svg width="18" height="18" viewBox="0 0 18 18" fill="none" xmlns="http://www.w3.org/2000/svg">
<path d="M9 1.62C11.4 1.62 11.685 1.6275 12.6375 1.6725C13.515 1.71 13.995 1.86 14.31 1.98C14.73 2.145 15.03 2.34 15.345 2.655C15.66 2.97 15.855 3.27 16.02 3.69C16.14 4.005 16.29 4.485 16.3275 5.3625C16.3725 6.315 16.38 6.5925 16.38 9C16.38 11.4075 16.3725 11.685 16.3275 12.6375C16.29 13.515 16.14 13.995 16.02 14.31C15.855 14.73 15.66 15.03 15.345 15.345C15.03 15.66 14.73 15.855 14.31 16.02C13.995 16.14 13.515 16.29 12.6375 16.3275C11.685 16.3725 11.4075 16.38 9 16.38C6.5925 16.38 6.315 16.3725 5.3625 16.3275C4.485 16.29 4.005 16.14 3.69 16.02C3.27 15.855 2.97 15.66 2.655 15.345C2.34 15.03 2.145 14.73 1.98 14.31C1.86 13.995 1.71 13.515 1.6725 12.6375C1.6275 11.685 1.62 11.4075 1.62 9C1.62 6.5925 1.6275 6.315 1.6725 5.3625C1.71 4.485 1.86 4.005 1.98 3.69C2.145 3.27 2.34 2.97 2.655 2.655C2.97 2.34 3.27 2.145 3.69 1.98C4.005 1.86 4.485 1.71 5.3625 1.6725C6.315 1.6275 6.5925 1.62 9 1.62ZM9 0C6.555 0 6.2475 0.00750001 5.2875 0.0525C4.3275 0.0975 3.675 0.2475 3.105 0.4725C2.5125 0.705 2.01 1.0125 1.5075 1.5075C1.005 2.01 0.697501 2.5125 0.472501 3.105C0.247501 3.675 0.0974998 4.335 0.0524998 5.2875C0.00749977 6.2475 0 6.555 0 9C0 11.445 0.00749977 11.7525 0.0524998 12.7125C0.0974998 13.6725 0.247501 14.325 0.472501 14.895C0.705001 15.4875 1.0125 15.99 1.5075 16.4925C2.01 16.995 2.5125 17.3025 3.105 17.5275C3.675 17.7525 4.335 17.9025 5.2875 17.9475C6.2475 17.9925 6.555 18 9 18C11.445 18 11.7525 17.9925 12.7125 17.9475C13.6725 17.9025 14.325 17.7525 14.895 17.5275C15.4875 17.295 15.99 16.9875 16.4925 16.4925C16.995 15.99 17.3025 15.4875 17.5275 14.895C17.7525 14.325 17.9025 13.665 17.9475 12.7125C17.9925 11.7525 18 11.445 18 9C18 6.555 17.9925 6.2475 17.9475 5.2875C17.9025 4.3275 17.7525 3.675 17.5275 3.105C17.295 2.5125 16.9875 2.01 16.4925 1.5075C15.99 1.005 15.4875 0.6975 14.895 0.4725C14.325 0.2475 13.665 0.0975 12.7125 0.0525C11.7525 0.00750001 11.445 0 9 0Z" fill="white"/>
<path d="M9.00007 4.37109C6.45007 4.37109 4.38007 6.44109 4.38007 8.99109C4.38007 11.5411 6.45007 13.6111 9.00007 13.6111C11.5501 13.6111 13.6201 11.5411 13.6201 8.99109C13.6201 6.44109 11.5501 4.37109 9.00007 4.37109ZM9.00007 11.9911C7.34257 11.9911 6.00007 10.6486 6.00007 8.99109C6.00007 7.33359 7.34257 5.99109 9.00007 5.99109C10.6576 5.99109 12.0001 7.33359 12.0001 8.99109C12.0001 10.6486 10.6576 11.9911 9.00007 11.9911Z" fill="white"/>
<path d="M13.8 5.27328C14.3964 5.27328 14.88 4.78975 14.88 4.19328C14.88 3.59681 14.3964 3.11328 13.8 3.11328C13.2035 3.11328 12.72 3.59681 12.72 4.19328C12.72 4.78975 13.2035 5.27328 13.8 5.27328Z" fill="white"/>
</svg>
