<svg width="128" height="32" viewBox="0 0 128 32" fill="none" xmlns="http://www.w3.org/2000/svg">
<g clip-path="url(#clip0_313_11086)">
<path d="M32.5491 32H0V0H32.5491V32ZM0.735036 31.2774H31.8141V0.722636H0.735036V31.2774Z" fill="white"/>
<path d="M64.3718 32H31.8141V0H64.3632V32H64.3718ZM32.5578 31.2774H63.6455V0.722636H32.5491V31.2774H32.5578Z" fill="white"/>
<path d="M96.1859 32H63.6368V0H96.1859V32ZM64.3718 31.2774H95.4595V0.722636H64.3718V31.2774Z" fill="white"/>
<path d="M128 32H95.4509V0H128V32ZM96.1859 31.2774H127.274V0.722636H96.1859V31.2774Z" fill="white"/>
<path d="M9.06254 16.1111V15.822C9.06254 13.4671 10.4461 10.5 16.0324 10.5H16.5426C22.1981 10.5 23.3482 12.8804 23.3482 14.4277V14.4872H19.2233C19.1109 14.2152 18.7304 13.3565 16.2918 13.3565C13.8532 13.3565 13.1442 14.6318 13.1442 15.89V16.0345C13.1442 17.2418 13.8446 18.653 16.2918 18.653C18.7391 18.653 19.1887 17.6923 19.2666 17.3608H16.1621V15.3714H23.4779V21.331H20.6934C20.6069 20.957 20.3734 20.3108 20.1659 19.9708C19.8287 20.3448 18.5142 21.4926 15.747 21.4926H15.4963C10.5067 21.4926 9.05389 18.5425 9.05389 16.1026L9.06254 16.1111Z" fill="white"/>
<path d="M54.6953 18.7445V20.3938C54.6953 20.9549 54.7558 21.1079 54.8596 21.2695V21.3375H50.8212C50.778 21.278 50.7174 21.0824 50.7174 20.6743V19.7732C50.7174 18.3959 50.2332 17.9963 48.6939 17.9963H45.2522V21.3375H41.3176V10.668H50.0775C54.0467 10.668 54.6088 12.1898 54.6088 13.5755V13.6775C54.6088 15.1993 53.4155 15.973 52.1702 16.2025C53.5711 16.432 54.6953 17.0782 54.6953 18.736V18.7445ZM49.256 15.2163C50.2937 15.2163 50.5272 14.7572 50.5272 14.2981V14.2726C50.5272 13.8136 50.2937 13.397 49.256 13.397H45.2436V15.2163H49.256Z" fill="white"/>
<path d="M77.9398 21.3375V10.668H81.8744V21.329H77.9398V21.3375Z" fill="white"/>
<path d="M111.302 10.668C117.208 10.668 118.531 13.2865 118.531 15.7009V16.1345C118.531 18.5745 117.338 21.3375 111.302 21.3375H104.911V10.668H111.302ZM110.835 18.583C114.069 18.583 114.423 17.0952 114.423 16.0155V15.9305C114.423 14.9018 114.043 13.4055 110.835 13.4055H108.855V18.583H110.835Z" fill="white"/>
<path d="M111.302 10.668C117.208 10.668 118.531 13.295 118.531 15.7009V16.1345C118.531 18.5745 117.338 21.3375 111.302 21.3375H104.911V10.668H111.302ZM110.835 18.583C114.069 18.583 114.423 17.0952 114.423 16.0155V15.9305C114.423 14.9018 114.043 13.4055 110.835 13.4055H108.855V18.583H110.835Z" fill="white"/>
</g>
<defs>
<clipPath id="clip0_313_11086">
<rect width="128" height="32" fill="white"/>
</clipPath>
</defs>
</svg>
