<svg width="18" height="18" viewBox="0 0 18 18" fill="none" xmlns="http://www.w3.org/2000/svg">
<path fill-rule="evenodd" clip-rule="evenodd" d="M15.3571 2.61302C13.6699 0.933223 11.4301 0 9.04107 0C4.12112 0 0.119456 4.00166 0.119456 8.92161C0.119456 10.4969 0.530079 12.0274 1.31399 13.3787L0.0447998 18L4.77064 16.7607C6.07715 17.4699 7.54045 17.8432 9.0336 17.8432C13.9536 17.8432 17.9552 13.8416 17.9552 8.92161C17.9552 6.54002 17.0295 4.30029 15.3422 2.61302H15.3571ZM9.04854 16.3351C7.71963 16.3351 6.41311 15.9768 5.27085 15.3049L5.00208 15.1406L2.19495 15.8797L2.94153 13.1472L2.76234 12.8635C2.02323 11.6839 1.62755 10.3177 1.62755 8.92161C1.62755 4.83783 4.95729 1.50809 9.04854 1.50809C11.027 1.50809 12.8934 2.28453 14.2895 3.68063C15.6931 5.0842 16.4621 6.94318 16.4621 8.92161C16.4621 13.0054 13.1323 16.3351 9.04854 16.3351ZM13.1174 10.7806C12.8934 10.6686 11.7959 10.1311 11.5944 10.0564C11.3928 9.98175 11.2435 9.94442 11.0942 10.1684C10.9448 10.3924 10.5193 10.8926 10.3849 11.0419C10.258 11.1912 10.1236 11.2061 9.89964 11.0942C9.67566 10.9822 8.95895 10.7507 8.10785 9.98922C7.44339 9.39942 6.99544 8.66777 6.86852 8.4438C6.74161 8.21982 6.8536 8.10037 6.96558 7.98839C7.06264 7.89133 7.18955 7.72708 7.30154 7.60017C7.41353 7.47325 7.45086 7.37619 7.52552 7.22688C7.60017 7.07756 7.56284 6.95064 7.51058 6.83866C7.45832 6.72667 7.01038 5.6292 6.82373 5.18125C6.64455 4.74824 6.45791 4.80796 6.32352 4.8005C6.19661 4.8005 6.04729 4.79303 5.89798 4.79303C5.74866 4.79303 5.50975 4.84529 5.30071 5.06927C5.09913 5.29324 4.52427 5.83078 4.52427 6.92825C4.52427 8.02571 5.32311 9.08586 5.43509 9.23517C5.54708 9.38449 7.01037 11.6317 9.24264 12.6022C9.77271 12.8337 10.1908 12.9681 10.5118 13.0726C11.0494 13.2443 11.5346 13.2219 11.9154 13.1622C12.3409 13.095 13.2368 12.6246 13.4235 12.102C13.6101 11.5794 13.6101 11.1389 13.5504 11.0419C13.4907 10.9448 13.3488 10.8926 13.1249 10.7806H13.1174Z" fill="url(#paint0_linear_313_11067)"/>
<defs>
<linearGradient id="paint0_linear_313_11067" x1="0.650024" y1="9.5" x2="18.15" y2="9.5" gradientUnits="userSpaceOnUse">
<stop stop-color="#02B5D3"/>
<stop offset="1" stop-color="#E6F0CD"/>
</linearGradient>
</defs>
</svg>
